<svg width="36" height="20" viewBox="0 0 36 20" fill="none" xmlns="http://www.w3.org/2000/svg">
<g filter="url(#filter0_d_20_327)">
<path d="M9.9199 2.08171C10.2309 1.69273 10.4419 1.17044 10.3863 0.636719C9.93102 0.659356 9.37548 0.937062 9.05385 1.32635C8.76506 1.65972 8.50945 2.20388 8.57609 2.71522C9.08713 2.75955 9.5977 2.45978 9.9199 2.08171Z" fill="#000008"/>
<path d="M10.3805 2.81507C9.63833 2.77086 9.00732 3.23628 8.65291 3.23628C8.2983 3.23628 7.75557 2.83734 7.16857 2.8481C6.40455 2.85932 5.69562 3.2913 5.30791 3.97836C4.51047 5.35281 5.09747 7.39161 5.87295 8.51102C6.24953 9.06483 6.70339 9.67462 7.30141 9.65271C7.86644 9.63054 8.08791 9.28685 8.77473 9.28685C9.46105 9.28685 9.66054 9.65271 10.2587 9.64163C10.8789 9.63054 11.2667 9.08754 11.6433 8.5332C12.0753 7.90188 12.2522 7.29229 12.2633 7.25883C12.2522 7.24775 11.0672 6.79318 11.0562 5.43015C11.0451 4.28887 11.9865 3.74601 12.0309 3.71234C11.4992 2.92601 10.6685 2.83734 10.3805 2.81507Z" fill="#000008"/>
<path d="M16.8425 1.27052C18.4556 1.27052 19.5788 2.38242 19.5788 4.00125C19.5788 5.62587 18.4325 6.74354 16.8021 6.74354H15.0161V9.58373H13.7258V1.27052L16.8425 1.27052ZM15.0161 5.66043H16.4967C17.6202 5.66043 18.2596 5.05559 18.2596 4.00703C18.2596 2.95859 17.6202 2.35941 16.5025 2.35941H15.0161V5.66043Z" fill="#000008"/>
<path d="M19.9159 7.8612C19.9159 6.80109 20.7283 6.15013 22.1686 6.06945L23.8277 5.97156V5.50495C23.8277 4.83088 23.3725 4.42762 22.6122 4.42762C21.8919 4.42762 21.4426 4.77321 21.3332 5.31482H20.158C20.2271 4.22015 21.1603 3.41362 22.6582 3.41362C24.1273 3.41362 25.0663 4.19137 25.0663 5.40694V9.58371H23.8737V8.58705H23.845C23.4937 9.26112 22.7274 9.68739 21.9324 9.68739C20.7456 9.68739 19.9159 8.94998 19.9159 7.8612ZM23.8277 7.31392V6.83576L22.3355 6.92788C21.5923 6.97977 21.1719 7.30814 21.1719 7.82664C21.1719 8.35658 21.6097 8.70228 22.278 8.70228C23.1478 8.70228 23.8277 8.10311 23.8277 7.31392Z" fill="#000008"/>
<path d="M26.1922 11.8133V10.8051C26.2842 10.8281 26.4915 10.8281 26.5953 10.8281C27.1714 10.8281 27.4825 10.5861 27.6725 9.96397C27.6725 9.95242 27.7821 9.59527 27.7821 9.58949L25.593 3.52307H26.9409L28.4735 8.45459H28.4964L30.029 3.52307H31.3425L29.0724 9.90052C28.5542 11.3697 27.955 11.8421 26.6991 11.8421C26.5953 11.8421 26.2842 11.8305 26.1922 11.8133Z" fill="#000008"/>
</g>
<defs>
<filter id="filter0_d_20_327" x="0.927612" y="0.636719" width="34.4148" height="19.2056" filterUnits="userSpaceOnUse" color-interpolation-filters="sRGB">
<feFlood flood-opacity="0" result="BackgroundImageFix"/>
<feColorMatrix in="SourceAlpha" type="matrix" values="0 0 0 0 0 0 0 0 0 0 0 0 0 0 0 0 0 0 127 0" result="hardAlpha"/>
<feOffset dy="4"/>
<feGaussianBlur stdDeviation="2"/>
<feComposite in2="hardAlpha" operator="out"/>
<feColorMatrix type="matrix" values="0 0 0 0 0 0 0 0 0 0 0 0 0 0 0 0 0 0 0.25 0"/>
<feBlend mode="normal" in2="BackgroundImageFix" result="effect1_dropShadow_20_327"/>
<feBlend mode="normal" in="SourceGraphic" in2="effect1_dropShadow_20_327" result="shape"/>
</filter>
</defs>
</svg>
